<?xml version="1.0" encoding="UTF-8"?>
<!DOCTYPE svg PUBLIC "-//W3C//DTD SVG 1.1//EN" "http://www.w3.org/Graphics/SVG/1.1/DTD/svg11.dtd">
<!-- Creator: CorelDRAW -->
<svg xmlns="http://www.w3.org/2000/svg" xml:space="preserve" width="2048px" height="2048px" style="shape-rendering:geometricPrecision; text-rendering:geometricPrecision; image-rendering:optimizeQuality; fill-rule:evenodd; clip-rule:evenodd"
viewBox="0 0 2048 2048"
 xmlns:xlink="http://www.w3.org/1999/xlink">
 <defs>
  <style type="text/css">
   <![CDATA[
    .fil2 {fill:none}
    .fil5 {fill:#EBE5D3}
    .fil8 {fill:#FEFEFE}
    .fil6 {fill:#282B2C}
    .fil4 {fill:#5D5450}
    .fil3 {fill:#AB988D}
    .fil7 {fill:#C4B4AB}
    .fil1 {fill:#F4511E}
    .fil0 {fill:#FF7043}
   ]]>
  </style>
   <clipPath id="id0">
    <path d="M1024 -0.0011811c565.539,0 1024,458.462 1024,1024 0,565.539 -458.462,1024 -1024,1024 -565.539,0 -1024,-458.462 -1024,-1024 0,-565.539 458.462,-1024 1024,-1024z"/>
   </clipPath>
 </defs>
 <g id="Layer_x0020_1">
  <metadata id="CorelCorpID_0Corel-Layer"/>
  <path class="fil0" d="M1024 -0.0011811c565.539,0 1024,458.462 1024,1024 0,565.539 -458.462,1024 -1024,1024 -565.539,0 -1024,-458.462 -1024,-1024 0,-565.539 458.462,-1024 1024,-1024z"/>
  <g style="clip-path:url(#id0)">
   <g id="_300472016">
    <g>
     <polygon id="_3603594561" class="fil1" points="803.901,475.199 1939.78,1611.08 1941.99,1613.6 1944.25,1616.4 1946.53,1619.47 1948.87,1622.84 812.984,486.958 810.654,483.591 808.365,480.513 806.114,477.717 "/>
     <polygon id="_360359576" class="fil1" points="1275.25,490.807 2411.13,1626.69 2412.42,1628.28 2413.65,1629.97 2414.82,1631.76 2415.92,1633.65 2416.96,1635.65 2417.93,1637.76 2418.84,1639.96 2419.69,1642.28 2420.47,1644.69 2421.19,1647.22 2421.84,1649.85 2422.43,1652.59 2422.95,1655.43 2423.4,1658.38 2423.79,1661.44 1287.91,525.563 1287.52,522.502 1287.07,519.55 1286.55,516.704 1285.96,513.968 1285.31,511.336 1284.59,508.812 1283.81,506.393 1282.96,504.081 1282.05,501.873 1281.08,499.77 1280.04,497.77 1278.94,495.876 1277.77,494.084 1276.54,492.395 "/>
     <polygon id="_360359480" class="fil1" points="1287.91,525.563 2423.79,1661.44 2427.07,1669.78 2429.8,1678.31 2432,1687 2433.7,1695.82 2434.94,1704.75 2435.75,1713.74 2436.14,1722.78 2436.16,1731.83 2435.83,1740.87 2435.18,1749.85 2434.25,1758.76 2433.05,1767.56 2431.63,1776.22 2430,1784.72 2428.21,1793.01 2426.27,1801.08 2424.22,1808.9 2422.09,1816.42 2419.91,1823.63 2417.7,1830.49 2415.5,1836.98 2413.34,1843.06 2411.24,1848.7 2409.24,1853.87 2407.37,1858.55 2405.65,1862.7 2404.11,1866.3 2402.78,1869.3 2401.7,1871.7 2400.89,1873.44 2400.38,1874.51 2400.21,1874.87 1264.33,738.992 1264.5,738.629 1265.01,737.559 1265.82,735.813 1266.9,733.421 1268.23,730.413 1269.76,726.819 1271.49,722.667 1273.36,717.99 1275.36,712.816 1277.46,707.175 1279.62,701.097 1281.82,694.612 1284.03,687.749 1286.21,680.541 1288.34,673.015 1290.39,665.202 1292.32,657.132 1294.12,648.834 1295.74,640.339 1297.17,631.676 1298.36,622.877 1299.3,613.969 1299.95,604.985 1300.28,595.952 1300.26,586.901 1299.86,577.862 1299.06,568.865 1297.82,559.941 1296.12,551.119 1293.92,542.429 1291.19,533.9 "/>
     <polygon id="_360359552" class="fil1" points="1264.33,738.992 2400.21,1874.87 2404.68,1882.51 2408.96,1890.04 2413.06,1897.45 2416.99,1904.74 2420.74,1911.92 2424.33,1918.99 2427.74,1925.94 2431,1932.78 2434.09,1939.5 2437.02,1946.12 2439.8,1952.62 2442.42,1959.01 2444.9,1965.29 2447.24,1971.47 2449.43,1977.53 2451.48,1983.48 2453.4,1989.33 2455.19,1995.07 2456.84,2000.71 2458.38,2006.23 2459.78,2011.65 2461.07,2016.97 2462.24,2022.18 2463.3,2027.29 2464.25,2032.29 2465.1,2037.19 2465.84,2041.99 2466.47,2046.69 2467.02,2051.29 2467.46,2055.78 2467.82,2060.18 2468.09,2064.48 1332.21,928.594 1331.94,924.297 1331.58,919.901 1331.13,915.406 1330.59,910.809 1329.95,906.112 1329.21,901.312 1328.37,896.411 1327.42,891.407 1326.36,886.299 1325.19,881.087 1323.9,875.77 1322.49,870.35 1320.96,864.823 1319.31,859.19 1317.52,853.45 1315.6,847.602 1313.55,841.648 1311.36,835.585 1309.02,829.412 1306.54,823.13 1303.92,816.738 1301.14,810.234 1298.2,803.62 1295.11,796.894 1291.86,790.055 1288.45,783.105 1284.86,776.039 1281.11,768.86 1277.18,761.566 1273.08,754.157 1268.79,746.632 "/>
     <polygon id="_360360872" class="fil1" points="1332.21,928.594 2468.09,2064.48 2468.2,2066.73 2468.28,2068.95 2468.35,2071.14 2468.39,2073.31 2468.4,2075.45 2468.4,2077.56 2468.38,2079.65 2468.33,2081.7 2468.27,2083.73 2468.18,2085.73 2468.08,2087.71 2467.95,2089.65 2467.81,2091.57 2467.65,2093.47 2467.48,2095.33 2467.28,2097.17 2467.07,2098.98 2466.85,2100.77 2466.61,2102.53 2466.35,2104.26 2466.08,2105.97 2465.8,2107.65 2465.5,2109.3 2465.19,2110.93 2464.87,2112.53 2464.53,2114.11 2464.19,2115.65 2463.83,2117.18 2463.46,2118.68 2463.09,2120.15 2462.7,2121.6 2462.3,2123.02 1326.42,987.135 1326.82,985.715 1327.2,984.268 1327.58,982.795 1327.95,981.296 1328.31,979.772 1328.65,978.223 1328.99,976.647 1329.31,975.046 1329.62,973.418 1329.92,971.765 1330.2,970.085 1330.47,968.378 1330.73,966.646 1330.97,964.887 1331.19,963.101 1331.4,961.288 1331.6,959.449 1331.77,957.583 1331.93,955.69 1332.07,953.77 1332.2,951.823 1332.3,949.849 1332.38,947.847 1332.45,945.819 1332.5,943.763 1332.52,941.679 1332.52,939.568 1332.51,937.429 1332.47,935.261 1332.4,933.067 1332.32,930.844 "/>
     <polygon id="_360360224" class="fil1" points="836.821,508.532 1972.7,1644.41 1978.39,1650.66 1983.97,1657.16 1989.41,1663.9 1994.72,1670.82 1999.89,1677.9 2004.92,1685.09 2009.79,1692.37 2014.51,1699.68 2019.05,1707 2023.43,1714.29 2027.62,1721.51 2031.63,1728.63 2035.45,1735.6 2039.07,1742.38 2042.48,1748.96 2045.69,1755.27 2048.67,1761.3 2051.43,1766.99 2053.95,1772.32 2056.24,1777.25 2058.29,1781.73 2060.08,1785.74 2061.61,1789.23 2062.88,1792.17 2063.88,1794.53 2064.6,1796.25 2065.04,1797.32 2065.19,1797.68 929.309,661.796 929.161,661.433 928.723,660.37 928.001,658.645 927.002,656.292 925.731,653.351 924.197,649.858 922.404,645.85 920.359,641.365 918.072,636.439 915.545,631.11 912.786,625.414 909.804,619.389 906.602,613.073 903.188,606.502 899.57,599.713 895.751,592.744 891.741,585.63 887.546,578.411 883.171,571.121 878.624,563.801 873.911,556.485 869.038,549.212 864.012,542.017 858.84,534.938 853.529,528.015 848.084,521.28 842.513,514.774 "/>
     <polygon id="_360360896" class="fil1" points="1315.64,1013.58 2451.52,2149.46 2450.41,2151.39 2449.32,2153.18 2448.27,2154.84 2447.25,2156.38 2446.27,2157.78 2445.35,2159.06 2444.48,2160.2 2443.67,2161.23 2442.94,2162.12 2442.28,2162.9 2441.7,2163.55 2441.21,2164.08 2440.82,2164.49 2440.54,2164.78 2440.36,2164.96 2440.3,2165.02 1304.42,1029.13 1304.48,1029.08 1304.66,1028.9 1304.94,1028.61 1305.33,1028.2 1305.82,1027.67 1306.4,1027.02 1307.06,1026.24 1307.79,1025.34 1308.6,1024.32 1309.47,1023.17 1310.39,1021.9 1311.37,1020.5 1312.39,1018.96 1313.44,1017.3 1314.53,1015.5 "/>
     <polygon id="_360360728" class="fil1" points="1304.42,1029.13 2440.3,2165.02 2440.27,2165.09 2440.17,2165.32 2440.03,2165.7 2439.83,2166.24 2439.58,2166.94 2439.3,2167.8 2438.98,2168.82 2438.63,2170 2438.25,2171.35 2437.86,2172.86 2437.45,2174.55 2437.03,2176.4 2436.61,2178.43 2436.19,2180.63 2435.77,2183 2435.37,2185.55 1299.49,1049.67 1299.89,1047.12 1300.3,1044.74 1300.73,1042.54 1301.15,1040.52 1301.57,1038.66 1301.98,1036.98 1302.37,1035.47 1302.75,1034.12 1303.1,1032.94 1303.42,1031.92 1303.7,1031.06 1303.95,1030.36 1304.14,1029.82 1304.29,1029.44 1304.39,1029.21 "/>
     <polygon id="_360360416" class="fil1" points="1299.49,1049.67 2435.37,2185.55 2445.15,2197.56 2454.14,2209.49 2462.35,2221.32 2469.84,2233.02 2476.61,2244.59 2482.72,2255.99 2488.19,2267.21 2493.05,2278.24 2497.33,2289.04 2501.07,2299.61 2504.3,2309.91 2507.06,2319.94 2509.36,2329.67 2511.25,2339.09 2512.76,2348.16 2513.91,2356.88 2514.75,2365.22 2515.3,2373.17 2515.6,2380.7 2515.67,2387.8 2515.55,2394.44 2515.28,2400.6 2514.88,2406.28 2514.38,2411.44 2513.83,2416.06 2513.24,2420.13 2512.66,2423.63 2512.11,2426.54 2511.62,2428.83 2511.24,2430.5 2510.98,2431.51 2510.89,2431.85 1375.01,1295.97 1375.1,1295.63 1375.36,1294.62 1375.74,1292.95 1376.22,1290.66 1376.77,1287.75 1377.36,1284.25 1377.94,1280.18 1378.5,1275.55 1379,1270.39 1379.4,1264.72 1379.67,1258.56 1379.79,1251.92 1379.71,1244.82 1379.42,1237.29 1378.87,1229.34 1378.03,1221 1376.87,1212.28 1375.37,1203.2 1373.48,1193.79 1371.17,1184.06 1368.42,1174.03 1365.19,1163.72 1361.45,1153.16 1357.17,1142.35 1352.31,1131.33 1346.84,1120.11 1340.73,1108.7 1333.96,1097.14 1326.47,1085.44 1318.26,1073.61 1309.27,1061.68 "/>
     <polygon id="_360360272" class="fil1" points="1375.01,1295.97 2510.89,2431.85 2482.25,2431.85 1346.37,1295.97 "/>
     <polygon id="_360360464" class="fil1" points="1346.37,1295.97 2482.25,2431.85 2458.38,2497.17 1322.5,1361.29 "/>
     <polygon id="_360360488" class="fil1" points="1322.5,1361.29 2458.38,2497.17 2405.89,2471.73 1270.01,1335.85 "/>
     <polygon id="_360360560" class="fil1" points="1270.01,1335.85 2405.89,2471.73 2382.02,2538.6 1246.14,1402.71 "/>
     <polygon id="_360360608" class="fil1" points="1246.14,1402.71 2382.02,2538.6 2332.52,2529.05 1196.63,1393.17 "/>
     <polygon id="_360360704" class="fil1" points="1196.63,1393.17 2332.52,2529.05 2293.59,2605.41 1157.71,1469.53 "/>
     <polygon id="_360361376" class="fil1" points="758.169,1090.73 1894.05,2226.61 1885.9,2222.28 1878.35,2217.55 1871.4,2212.45 1865.02,2206.98 729.139,1071.09 735.519,1076.56 742.473,1081.67 750.017,1086.4 "/>
     <polygon id="_360361472" class="fil1" points="718.23,1298.31 1854.11,2434.19 1851.69,2435.16 1849.34,2436.25 1847.05,2437.47 1844.83,2438.8 1842.68,2440.23 1840.59,2441.76 1838.58,2443.36 1836.63,2445.02 1834.76,2446.75 1832.96,2448.52 1831.23,2450.33 1829.57,2452.17 1827.98,2454.02 1826.47,2455.87 1825.04,2457.72 1823.68,2459.55 1822.4,2461.35 1821.19,2463.11 1820.06,2464.83 1819.01,2466.48 1818.05,2468.06 1817.16,2469.56 1816.35,2470.97 1815.63,2472.28 1814.98,2473.47 1814.42,2474.54 1813.95,2475.48 1813.55,2476.26 1813.25,2476.9 1813.03,2477.36 1812.9,2477.65 1812.85,2477.74 676.973,1341.86 677.018,1341.76 677.149,1341.48 677.369,1341.01 677.673,1340.38 678.064,1339.59 678.54,1338.66 679.1,1337.59 679.744,1336.4 680.469,1335.09 681.276,1333.68 682.165,1332.18 683.134,1330.6 684.181,1328.94 685.309,1327.23 686.514,1325.47 687.797,1323.66 689.156,1321.83 690.591,1319.99 692.102,1318.13 693.686,1316.28 695.344,1314.45 697.075,1312.64 698.878,1310.87 700.752,1309.14 702.697,1307.47 704.714,1305.87 706.797,1304.35 708.95,1302.92 711.171,1301.59 713.457,1300.37 715.811,1299.28 "/>
     <polygon id="_360361208" class="fil1" points="795.755,1415.72 1931.64,2551.6 1899.68,2591.4 763.797,1455.52 "/>
     <polygon id="_360361568" class="fil1" points="893.318,1440.93 2029.2,2576.81 1971.48,2657.99 835.603,1522.11 "/>
     <polygon id="_360361592" class="fil1" points="932.806,1479.09 2068.69,2614.97 2061.24,2638.84 925.358,1502.96 "/>
     <polygon id="_360361328" class="fil1" points="1036.13,1459.98 2172.01,2595.87 2119.5,2719.88 983.623,1584 "/>
     <polygon id="_360361616" class="fil1" points="1102.65,1450.44 2238.53,2586.32 2210.19,2648.37 1074.31,1512.49 "/>
     <polygon id="_360360944" class="fil1" points="753.449,1090.73 1889.33,2226.61 1889.37,2226.65 1889.49,2226.79 1889.69,2227.01 1889.97,2227.32 1890.32,2227.71 1890.75,2228.19 1891.26,2228.75 1891.84,2229.38 755.957,1093.5 755.377,1092.86 754.871,1092.31 754.442,1091.83 754.087,1091.44 753.81,1091.13 753.61,1090.91 753.49,1090.77 "/>
     <polygon id="_360361184" class="fil1" points="1157.71,1469.53 2293.59,2605.41 2238.53,2586.32 1102.65,1450.44 "/>
     <polygon id="_360361232" class="fil1" points="1326.42,987.135 2462.3,2123.02 2461.7,2125.08 2461.09,2127.08 2460.45,2129.02 2459.81,2130.92 2459.15,2132.76 2458.48,2134.54 2457.8,2136.27 2457.11,2137.95 2456.42,2139.57 2455.72,2141.14 2455.02,2142.66 2454.31,2144.12 2453.61,2145.53 2452.91,2146.89 2452.21,2148.2 2451.52,2149.46 1315.64,1013.58 1316.33,1012.32 1317.03,1011.01 1317.73,1009.65 1318.43,1008.24 1319.14,1006.77 1319.84,1005.26 1320.54,1003.69 1321.23,1002.06 1321.92,1000.39 1322.6,998.657 1323.27,996.874 1323.93,995.036 1324.57,993.142 1325.21,991.196 1325.82,989.193 "/>
    </g>
    <path id="_300472064" class="fil1" d="M812.984 486.958c65.6138,48.9768 116.324,174.838 116.324,174.838 10.4079,-1.86142 21.4453,-2.97402 32.6977,-3.51378 5.31969,-0.263386 10.689,-0.394488 16.0618,-0.413386 3.9815,-0.0200788 7.96536,0.022441 11.9339,0.120473 11.3811,0.264567 22.6358,0.956694 33.3461,1.89213 5.46378,0.472441 10.787,1.01102 15.9118,1.58858 12.111,1.36063 23.1201,2.93622 32.2937,4.40315 16.7906,2.68819 27.4347,5.01496 27.4335,5.01615 24.9555,-112.283 124.21,-127.954 144.998,-191.782 25.0051,-1.47402 40.1256,13.2319 43.9276,46.4552 38.0457,87.7997 -23.5855,213.429 -23.5855,213.429 48.6402,82.128 65.4674,144.301 67.8792,189.603 1.29567,24.1559 -1.51063,43.5154 -5.78504,58.5414 -3.14646,11.1224 -7.10079,19.8732 -10.7835,26.4414 -5.96457,10.6382 -11.2181,15.5563 -11.2193,15.5575 0,0 -2.81811,6.44764 -4.93347,20.537 108.756,128.471 75.5233,246.3 75.5233,246.3l-28.6406 0 -23.8654 65.3138 -52.4965 -25.4374 -23.8666 66.867 -49.5048 -9.54568 -38.9221 76.3583 -55.0595 -19.0854 -28.3418 62.0469 -38.1815 -52.5059 -52.5071 124.018 -50.817 -104.91 -7.44804 23.8654 -32.0398 -62.0268 -57.7146 81.1784 -39.8481 -106.387 -31.9583 39.8008c-28.6571,-52.513 -45.5646,-157.212 -45.567,-157.212 -26.1484,9.54568 -41.2548,43.5473 -41.2571,43.552 -41.2477,-119.273 76.4764,-251.136 76.4764,-251.136 0,0 0.864568,0.975591 2.50748,2.77087 1.42205,-1.84488 2.21221,-2.76614 2.21221,-2.76614 -90.2611,-44.0162 -73.7599,-159.018 -45.9957,-244.185 18.5811,-57.0402 42.2185,-100.699 42.2185,-100.699 -41.9941,-118.951 0,-251.687 0,-251.687 15.424,-31.9512 33.5244,-44.6741 58.5922,-7.20237z"/>
   </g>
  </g>
  <path class="fil2" d="M1024 -0.0011811c565.539,0 1024,458.462 1024,1024 0,565.539 -458.462,1024 -1024,1024 -565.539,0 -1024,-458.462 -1024,-1024 0,-565.539 458.462,-1024 1024,-1024z"/>
  <path class="fil3" d="M929.309 661.795c0,0 -50.7107,-125.86 -116.323,-174.836 -25.0689,-37.4729 -43.1693,-24.7488 -58.5934,7.20237 0,0 -41.9941,132.736 0,251.687 0,0 -146.932,271.389 3.77599,344.883 0,-0.00236221 -58.0997,67.767 -73.4327,203.643l653.862 0 -22.2071 -83.7095c-34.4882,-130.006 -11.9717,-181.531 -11.9717,-181.531 0.00472441,-0.00472441 84.7595,-79.3359 -40.0914,-290.143 0,0 61.6311,-125.629 23.5855,-213.429 -3.80197,-33.2233 -18.9213,-47.9292 -43.9276,-46.454 -20.7886,63.8268 -120.043,79.4977 -144.998,191.78 0.00354331,-0.00236221 -99.2328,-21.6921 -169.678,-9.0945z"/>
  <path class="fil4" d="M1025.63 721.066c-0.276378,-20.2961 -0.862205,-40.7764 -2.27835,-61.1847 -10.7102,-0.930709 -21.9662,-1.62284 -33.3449,-1.89213 0.846851,21.0272 2.39173,42.0579 3.39213,63.0768 1.97599,41.8288 1.34528,86.0457 13.3039,126.377 1.6937,5.65748 9.85631,5.71772 11.4957,0 11.765,-40.8343 8.01142,-84.2741 7.4315,-126.377z"/>
  <path class="fil4" d="M962.006 658.281c-3.99213,31.1421 1.05827,62.0835 0.921261,93.3922 -0.00708662,2.79331 3.96614,3.24449 4.77756,0.648426 9.49489,-30.6591 14.5571,-62.5595 10.3642,-94.454 -5.37402,0.0236221 -10.7433,0.155906 -16.063,0.413386z"/>
  <path class="fil4" d="M1039.26 661.47c0.0744095,1.4811 0.144095,2.96575 0.201969,4.44685 1.08189,27.6461 2.09055,55.8709 10.6913,82.3477 1.50945,4.62048 7.86615,4.62048 9.37324,0 7.57323,-23.3669 11.9244,-53.0823 12.0272,-82.3914 -9.17363,-1.46811 -20.1851,-3.04252 -32.2937,-4.40315z"/>
  <path class="fil4" d="M776.627 890.228c-21.5988,-14.3776 -41.8937,-30.8658 -64.454,-43.6819 -2.90315,8.90788 -5.6752,18.1417 -8.2252,27.5858 20.7142,13.0347 42.9851,23.2441 66.0497,31.8296 9.59528,3.5752 14.3469,-10.6016 6.62953,-15.7335z"/>
  <path class="fil4" d="M751.527 930.558c-17.4036,-7.57914 -37.2024,-14.5039 -56.7331,-15.0945 -1.71851,10.1433 -3.01654,20.3315 -3.7878,30.4453 19.1173,0.570473 38.9256,-4.18229 57.75,-5.05867 4.95591,-0.231496 8.16733,-7.92048 2.77087,-10.2921z"/>
  <path class="fil4" d="M760.643 964.909c-24.4087,4.11969 -46.3595,13.7823 -69.417,22.3772 1.40079,14.2004 4.34055,27.841 9.16418,40.5343 26.4012,-12.0543 50.641,-28.9784 68.4107,-48.8823 5.86654,-6.57284 0.0484252,-15.4016 -8.15788,-14.0291z"/>
  <path class="fil4" d="M1317.86 854.593c-26.8866,12.7323 -52.8119,29.9563 -74.7709,47.6729 -10.9335,8.82757 0.90945,25.8047 13.0925,22.5036 24.639,-6.66969 48.8374,-20.1874 70.6501,-36.1902 -2.21811,-10.6453 -5.16969,-21.9685 -8.97166,-33.9862z"/>
  <path class="fil4" d="M1332.21 928.594c-17.3646,4.41851 -34.6949,8.98465 -52.5201,11.8973 -4.17638,0.68504 -4.25906,7.90394 0,8.5193 17.2914,2.47795 35.1048,3.6189 52.5426,1.98425 0.37441,-6.95552 0.403937,-14.413 -0.022441,-22.4008z"/>
  <path class="fil4" d="M1326.42 987.135c-16.3949,-3.86693 -32.3422,-12.6839 -46.3595,-20.8051 -7.88859,-4.55788 -14.9894,5.67756 -9.36261,12.1406 12.4441,14.2701 27.9591,26.8902 44.9374,35.1059 3.68268,-6.5693 7.62875,-15.3248 10.7847,-26.4414z"/>
  <path class="fil5" d="M1197.92 906.481c0,0 -23.6752,42.2929 -52.8473,42.2929 -29.1981,-0.00236221 -52.8591,-42.2906 -52.8591,-42.2906 0.00472441,-0.00236221 23.6587,-42.2882 52.8591,-42.2882 29.1768,-0.00472441 52.8473,42.2882 52.8473,42.2859z"/>
  <path class="fil5" d="M1197.92 906.481l-3.57166 -2.00433 -0.23504 0.413386c-1.25315,2.15788 -7.44922,12.3992 -16.4764,21.8941 -4.51418,4.75158 -9.73229,9.29883 -15.2799,12.5847 -5.55945,3.3 -11.3953,5.31496 -17.2843,5.30906 -6.28937,0.00590552 -12.5102,-2.28543 -18.4016,-5.97993 -8.82284,-5.51575 -16.6618,-14.1177 -22.1847,-21.326 -2.75906,-3.60591 -4.95591,-6.85749 -6.44646,-9.19135 -0.745276,-1.1752 -1.31929,-2.11536 -1.69725,-2.75433l-0.552756 -0.949607 -3.57166 2.00433 3.57166 1.99961 0.233858 -0.418111c1.25669,-2.15315 7.43859,-12.3921 16.474,-21.8799 4.50827,-4.74213 9.72639,-9.29883 15.2788,-12.5823 5.56418,-3.29292 11.3953,-5.30906 17.2961,-5.30906 6.28583,-0.00236221 12.5008,2.29488 18.3921,5.97993 8.81457,5.51103 16.6618,14.1154 22.1752,21.326 2.76496,3.60355 4.95709,6.85749 6.45591,9.19135 0.745276,1.16339 1.31811,2.10591 1.69488,2.74488l0.557481 0.947245 3.57166 -1.99961 -3.57166 -2.00433 3.57166 2.00433 3.57638 -2.00433c-0.0933072,-0.158268 -6.12402,-10.9382 -16.0193,-21.8894 -4.963,-5.47323 -10.8957,-11.0032 -17.6634,-15.2551 -6.75945,-4.2378 -14.4343,-7.22481 -22.741,-7.23308 -8.3067,0.00472441 -15.9933,2.99764 -22.7516,7.23308 -20.2016,12.7725 -33.4819,36.9154 -33.6862,37.1445l-1.1126 2.00433 1.11496 1.99961c0.0944883,0.158268 6.11693,10.9394 16.0205,21.8917 4.96063,5.48032 10.8898,11.0126 17.6634,15.2646 6.763,4.23071 14.4449,7.22363 22.7516,7.23308 8.30906,-0.011811 15.9815,-3 22.741,-7.23308 20.204,-12.7819 33.4831,-36.9177 33.6803,-37.154l1.12087 -2.00197 -1.1185 -2.00433 -3.57638 2.00433z"/>
  <path class="fil6" d="M1169.13 908.095c0,23.0327 -10.1173,41.7036 -22.5957,41.7036 -12.4913,-0.00472441 -22.5933,-18.6709 -22.5933,-41.7012 0,-23.0386 10.0996,-41.7048 22.5933,-41.7048 12.4807,-0.00236221 22.5957,18.6685 22.5957,41.7024z"/>
  <path class="fil5" d="M924.648 901.707c0,0 -27.2988,40.0441 -56.3658,37.4811 -29.0811,-2.56418 -48.9485,-46.7611 -48.9485,-46.7611 0,0 27.2882,-40.0453 56.3705,-37.4811 29.067,2.55355 48.9414,46.7622 48.9437,46.7611z"/>
  <path class="fil5" d="M924.648 901.707l-3.39331 -2.31378 -0.252756 0.369685c-1.34528,1.91575 -7.98898,11.0138 -17.3291,19.4693 -9.32835,8.51103 -21.3319,16.0654 -32.6941,15.9815 -0.778347,0 -1.55906,-0.0318898 -2.33622,-0.103937 -6.26575,-0.550394 -12.2646,-3.38622 -17.8099,-7.58032 -8.29961,-6.2693 -15.3614,-15.515 -20.2264,-23.1827 -2.43189,-3.83859 -4.33347,-7.26851 -5.6126,-9.7252 -0.646063,-1.23307 -1.12913,-2.21103 -1.45866,-2.88425l-0.464174 -0.994489 -3.73701 1.68425 3.38386 2.29843 0.255118 -0.360236c1.35118,-1.91575 7.98662,-11.0162 17.3244,-19.4622 9.33308,-8.51339 21.3343,-16.0654 32.7036,-15.9839 0.787796,-0.00472441 1.56496,0.0318898 2.34331,0.106299 6.26103,0.538583 12.2563,3.37441 17.7933,7.57087 8.30906,6.26339 15.3709,15.515 20.2264,23.1827 2.4437,3.8315 4.34292,7.26615 5.62205,9.72639 0.638977,1.22599 1.12913,2.20984 1.44921,2.88189l0.475985 0.998032 3.73701 -1.67835 -3.39331 -2.31378 3.39331 2.31378 3.73347 -1.68189c-0.080315,-0.170079 -5.13662,-11.4319 -14.0421,-23.2134 -4.45394,-5.89134 -9.87875,-11.9197 -16.2532,-16.7457 -6.36615,-4.8189 -13.7457,-8.47205 -22.0193,-9.20788 -1.0252,-0.0897638 -2.04921,-0.132284 -3.06614,-0.132284 -15.9165,0.10748 -29.9008,10.2673 -40.1658,19.9252 -10.2567,9.72993 -16.7776,19.3169 -16.8851,19.4646l-1.29331 1.89095 0.94252 2.09646c0.0791339,0.165354 5.13544,11.4307 14.0315,23.211 4.46575,5.88898 9.8882,11.9209 16.2626,16.7528 6.36497,4.80945 13.7551,8.46497 22.0288,9.20079 1.02638,0.0885827 2.03858,0.13937 3.0567,0.13937 15.9189,-0.106299 29.9008,-10.2732 40.1658,-19.9323 10.2496,-9.73702 16.7776,-19.3181 16.8851,-19.4646l1.28858 -1.89213 -0.936615 -2.09291 -3.73347 1.68189z"/>
  <path class="fil6" d="M895.81 900.79c-2.02559,22.937 -13.7575,40.6512 -26.1673,39.5551 -12.4358,-1.09843 -20.8654,-20.5807 -18.8516,-43.526 2.01496,-22.9488 13.7386,-40.6512 26.1673,-39.5551 12.4347,1.09843 20.8736,20.5725 18.8516,43.526z"/>
  <path class="fil7" d="M1157.39 684.955c0,0 62.2595,-103.37 95.2241,-110.154 32.9622,-6.77835 -14.1236,135.46 -14.1236,135.46 0.00472441,-0.00236221 -38.1922,-15.1476 -81.1005,-25.3051z"/>
  <path class="fil7" d="M795.839 712.387c0,0 41.7378,-24.4323 85.3217,-34.2532 0,-0.00472441 -66.4808,-119.356 -85.3241,-114.645 -18.8421,4.70788 -23.5453,81.3579 0.00236221,148.898z"/>
  <path class="fil8" d="M1050.13 970.353c-25.1126,0 -46.663,17.7697 -52.7174,41.2075 -1.0063,-2.69764 -2.1626,-5.35985 -3.6626,-7.92993 -4.55433,-7.70316 -10.6913,-13.839 -18.3992,-18.4016l-1.41614 -0.601182c-4.12914,-1.75158 -8.27717,-3.49488 -12.4051,-5.23937 -9.21497,-2.48504 -18.4252,-2.48268 -27.6402,0 -8.81457,2.46614 -16.4669,6.913 -22.9488,13.3618 -4.30748,4.33819 -7.65119,9.25631 -10.1823,14.6398 -6.74882,11.739 -7.52008,26.9126 -2.3504,39.4618 3.2374,11.2961 13.6063,22.0217 23.0433,27.561 8.12835,4.69252 16.8697,7.06182 26.2512,7.09371 9.38859,-0.0318898 18.1205,-2.40118 26.2299,-7.09371l1.41851 -0.615355c7.71024,-4.55906 13.8449,-10.6902 18.3992,-18.3992 2.31969,-3.97323 4.03819,-8.11182 5.21103,-12.3969 7.62638,20.9469 27.8445,36.2528 51.1689,36.2528 29.6823,-0.00236221 54.4548,-24.7736 54.4548,-54.4548 0.0011811,-29.6729 -24.7748,-54.4465 -54.4548,-54.4465z"/>
  <path class="fil6" d="M993.702 959.389c-32.6327,1.68662 -52.3016,5.09764 -28.6748,35.0315 23.6351,29.9339 32.1047,33.0733 65.1591,0.959056 33.0945,-32.1142 -12.4677,-37.226 -36.4843,-35.9906z"/>
  <path class="fil7" d="M753.449 1090.73c0,0 -117.724,131.862 -76.4764,251.136 0.00236221,-0.00472441 15.1087,-34.0075 41.2571,-43.552 0.00236221,0 16.911,104.699 45.567,157.212l31.9583 -39.8008 39.8481 106.387 57.7146 -81.1784 32.0398 62.0268 7.44804 -23.8654 50.8181 104.91 52.5059 -124.018 38.1827 52.5059 28.3406 -62.0481 55.0607 19.0866 38.9209 -76.3583 49.5048 9.5445 23.8666 -66.867 52.4965 25.4386 23.8654 -65.3138 28.6406 0c0,0 33.4051,-118.441 -76.3713,-247.301 0,-0.00236221 -144.751,180.495 -300.407,194.619 -101.339,9.20079 -244.781,-152.558 -244.781,-152.563z"/>
 </g>
</svg>
